<mxfile>
    <diagram id="50qi18_io6OZoOawAv0M" name="server-class-diagram">
        <mxGraphModel dx="994" dy="684" grid="1" gridSize="10" guides="1" tooltips="1" connect="1" arrows="1" fold="1" page="1" pageScale="1" pageWidth="1920" pageHeight="1200" math="0" shadow="0">
            <root>
                <mxCell id="0"/>
                <mxCell id="1" parent="0"/>
                <mxCell id="Xc-XRdm0GFgDPYHEz2J1-1" value="User" style="swimlane;fontStyle=1;align=center;verticalAlign=top;childLayout=stackLayout;horizontal=1;startSize=26;horizontalStack=0;resizeParent=1;resizeParentMax=0;resizeLast=0;collapsible=1;marginBottom=0;" parent="1" vertex="1">
                    <mxGeometry x="190" y="180" width="300" height="190" as="geometry"/>
                </mxCell>
                <mxCell id="Xc-XRdm0GFgDPYHEz2J1-2" value="- id:string" style="text;strokeColor=none;fillColor=none;align=left;verticalAlign=top;spacingLeft=4;spacingRight=4;overflow=hidden;rotatable=0;points=[[0,0.5],[1,0.5]];portConstraint=eastwest;" parent="Xc-XRdm0GFgDPYHEz2J1-1" vertex="1">
                    <mxGeometry y="26" width="300" height="26" as="geometry"/>
                </mxCell>
                <mxCell id="Xc-XRdm0GFgDPYHEz2J1-19" value="- name:string" style="text;strokeColor=none;fillColor=none;align=left;verticalAlign=top;spacingLeft=4;spacingRight=4;overflow=hidden;rotatable=0;points=[[0,0.5],[1,0.5]];portConstraint=eastwest;" parent="Xc-XRdm0GFgDPYHEz2J1-1" vertex="1">
                    <mxGeometry y="52" width="300" height="26" as="geometry"/>
                </mxCell>
                <mxCell id="Xc-XRdm0GFgDPYHEz2J1-20" value="- taks:Task[]" style="text;strokeColor=none;fillColor=none;align=left;verticalAlign=top;spacingLeft=4;spacingRight=4;overflow=hidden;rotatable=0;points=[[0,0.5],[1,0.5]];portConstraint=eastwest;" parent="Xc-XRdm0GFgDPYHEz2J1-1" vertex="1">
                    <mxGeometry y="78" width="300" height="26" as="geometry"/>
                </mxCell>
                <mxCell id="Xc-XRdm0GFgDPYHEz2J1-3" value="" style="line;strokeWidth=1;fillColor=none;align=left;verticalAlign=middle;spacingTop=-1;spacingLeft=3;spacingRight=3;rotatable=0;labelPosition=right;points=[];portConstraint=eastwest;" parent="Xc-XRdm0GFgDPYHEz2J1-1" vertex="1">
                    <mxGeometry y="104" width="300" height="8" as="geometry"/>
                </mxCell>
                <mxCell id="Xc-XRdm0GFgDPYHEz2J1-40" value="getters and setters" style="text;strokeColor=none;fillColor=none;align=left;verticalAlign=top;spacingLeft=4;spacingRight=4;overflow=hidden;rotatable=0;points=[[0,0.5],[1,0.5]];portConstraint=eastwest;" parent="Xc-XRdm0GFgDPYHEz2J1-1" vertex="1">
                    <mxGeometry y="112" width="300" height="26" as="geometry"/>
                </mxCell>
                <mxCell id="Xc-XRdm0GFgDPYHEz2J1-27" value="+ markItemTask(IdTask:string,idItem:int): void" style="text;strokeColor=none;fillColor=none;align=left;verticalAlign=top;spacingLeft=4;spacingRight=4;overflow=hidden;rotatable=0;points=[[0,0.5],[1,0.5]];portConstraint=eastwest;" parent="Xc-XRdm0GFgDPYHEz2J1-1" vertex="1">
                    <mxGeometry y="138" width="300" height="26" as="geometry"/>
                </mxCell>
                <mxCell id="Xc-XRdm0GFgDPYHEz2J1-4" value="+ markTask(id:string): void" style="text;strokeColor=none;fillColor=none;align=left;verticalAlign=top;spacingLeft=4;spacingRight=4;overflow=hidden;rotatable=0;points=[[0,0.5],[1,0.5]];portConstraint=eastwest;" parent="Xc-XRdm0GFgDPYHEz2J1-1" vertex="1">
                    <mxGeometry y="164" width="300" height="26" as="geometry"/>
                </mxCell>
                <mxCell id="Xc-XRdm0GFgDPYHEz2J1-5" value="Task" style="swimlane;fontStyle=1;align=center;verticalAlign=top;childLayout=stackLayout;horizontal=1;startSize=26;horizontalStack=0;resizeParent=1;resizeParentMax=0;resizeLast=0;collapsible=1;marginBottom=0;" parent="1" vertex="1">
                    <mxGeometry x="560" y="190" width="160" height="242" as="geometry"/>
                </mxCell>
                <mxCell id="Xc-XRdm0GFgDPYHEz2J1-21" value="- id:string" style="text;strokeColor=none;fillColor=none;align=left;verticalAlign=top;spacingLeft=4;spacingRight=4;overflow=hidden;rotatable=0;points=[[0,0.5],[1,0.5]];portConstraint=eastwest;" parent="Xc-XRdm0GFgDPYHEz2J1-5" vertex="1">
                    <mxGeometry y="26" width="160" height="26" as="geometry"/>
                </mxCell>
                <mxCell id="Xc-XRdm0GFgDPYHEz2J1-6" value="- title:string" style="text;strokeColor=none;fillColor=none;align=left;verticalAlign=top;spacingLeft=4;spacingRight=4;overflow=hidden;rotatable=0;points=[[0,0.5],[1,0.5]];portConstraint=eastwest;" parent="Xc-XRdm0GFgDPYHEz2J1-5" vertex="1">
                    <mxGeometry y="52" width="160" height="26" as="geometry"/>
                </mxCell>
                <mxCell id="Xc-XRdm0GFgDPYHEz2J1-9" value="- description:string" style="text;strokeColor=none;fillColor=none;align=left;verticalAlign=top;spacingLeft=4;spacingRight=4;overflow=hidden;rotatable=0;points=[[0,0.5],[1,0.5]];portConstraint=eastwest;" parent="Xc-XRdm0GFgDPYHEz2J1-5" vertex="1">
                    <mxGeometry y="78" width="160" height="26" as="geometry"/>
                </mxCell>
                <mxCell id="Xc-XRdm0GFgDPYHEz2J1-10" value="- isDone:boolean" style="text;strokeColor=none;fillColor=none;align=left;verticalAlign=top;spacingLeft=4;spacingRight=4;overflow=hidden;rotatable=0;points=[[0,0.5],[1,0.5]];portConstraint=eastwest;" parent="Xc-XRdm0GFgDPYHEz2J1-5" vertex="1">
                    <mxGeometry y="104" width="160" height="26" as="geometry"/>
                </mxCell>
                <mxCell id="Xc-XRdm0GFgDPYHEz2J1-17" value="- startDate:Date" style="text;strokeColor=none;fillColor=none;align=left;verticalAlign=top;spacingLeft=4;spacingRight=4;overflow=hidden;rotatable=0;points=[[0,0.5],[1,0.5]];portConstraint=eastwest;" parent="Xc-XRdm0GFgDPYHEz2J1-5" vertex="1">
                    <mxGeometry y="130" width="160" height="26" as="geometry"/>
                </mxCell>
                <mxCell id="Xc-XRdm0GFgDPYHEz2J1-18" value="- endDate:Date" style="text;strokeColor=none;fillColor=none;align=left;verticalAlign=top;spacingLeft=4;spacingRight=4;overflow=hidden;rotatable=0;points=[[0,0.5],[1,0.5]];portConstraint=eastwest;" parent="Xc-XRdm0GFgDPYHEz2J1-5" vertex="1">
                    <mxGeometry y="156" width="160" height="26" as="geometry"/>
                </mxCell>
                <mxCell id="Xc-XRdm0GFgDPYHEz2J1-22" value="- itemsTask:ItemTask[]" style="text;strokeColor=none;fillColor=none;align=left;verticalAlign=top;spacingLeft=4;spacingRight=4;overflow=hidden;rotatable=0;points=[[0,0.5],[1,0.5]];portConstraint=eastwest;" parent="Xc-XRdm0GFgDPYHEz2J1-5" vertex="1">
                    <mxGeometry y="182" width="160" height="26" as="geometry"/>
                </mxCell>
                <mxCell id="Xc-XRdm0GFgDPYHEz2J1-31" value="" style="line;strokeWidth=1;fillColor=none;align=left;verticalAlign=middle;spacingTop=-1;spacingLeft=3;spacingRight=3;rotatable=0;labelPosition=right;points=[];portConstraint=eastwest;" parent="Xc-XRdm0GFgDPYHEz2J1-5" vertex="1">
                    <mxGeometry y="208" width="160" height="8" as="geometry"/>
                </mxCell>
                <mxCell id="Xc-XRdm0GFgDPYHEz2J1-32" value="getters and setters" style="text;strokeColor=none;fillColor=none;align=left;verticalAlign=top;spacingLeft=4;spacingRight=4;overflow=hidden;rotatable=0;points=[[0,0.5],[1,0.5]];portConstraint=eastwest;" parent="Xc-XRdm0GFgDPYHEz2J1-5" vertex="1">
                    <mxGeometry y="216" width="160" height="26" as="geometry"/>
                </mxCell>
                <mxCell id="Xc-XRdm0GFgDPYHEz2J1-11" value="ItemTask" style="swimlane;fontStyle=1;align=center;verticalAlign=top;childLayout=stackLayout;horizontal=1;startSize=26;horizontalStack=0;resizeParent=1;resizeParentMax=0;resizeLast=0;collapsible=1;marginBottom=0;" parent="1" vertex="1">
                    <mxGeometry x="800" y="190" width="160" height="138" as="geometry"/>
                </mxCell>
                <mxCell id="Xc-XRdm0GFgDPYHEz2J1-12" value="- id:int" style="text;strokeColor=none;fillColor=none;align=left;verticalAlign=top;spacingLeft=4;spacingRight=4;overflow=hidden;rotatable=0;points=[[0,0.5],[1,0.5]];portConstraint=eastwest;" parent="Xc-XRdm0GFgDPYHEz2J1-11" vertex="1">
                    <mxGeometry y="26" width="160" height="26" as="geometry"/>
                </mxCell>
                <mxCell id="Xc-XRdm0GFgDPYHEz2J1-28" value="- isDone:boolean" style="text;strokeColor=none;fillColor=none;align=left;verticalAlign=top;spacingLeft=4;spacingRight=4;overflow=hidden;rotatable=0;points=[[0,0.5],[1,0.5]];portConstraint=eastwest;" parent="Xc-XRdm0GFgDPYHEz2J1-11" vertex="1">
                    <mxGeometry y="52" width="160" height="26" as="geometry"/>
                </mxCell>
                <mxCell id="Xc-XRdm0GFgDPYHEz2J1-13" value="- text:string" style="text;strokeColor=none;fillColor=none;align=left;verticalAlign=top;spacingLeft=4;spacingRight=4;overflow=hidden;rotatable=0;points=[[0,0.5],[1,0.5]];portConstraint=eastwest;" parent="Xc-XRdm0GFgDPYHEz2J1-11" vertex="1">
                    <mxGeometry y="78" width="160" height="26" as="geometry"/>
                </mxCell>
                <mxCell id="Xc-XRdm0GFgDPYHEz2J1-33" value="" style="line;strokeWidth=1;fillColor=none;align=left;verticalAlign=middle;spacingTop=-1;spacingLeft=3;spacingRight=3;rotatable=0;labelPosition=right;points=[];portConstraint=eastwest;" parent="Xc-XRdm0GFgDPYHEz2J1-11" vertex="1">
                    <mxGeometry y="104" width="160" height="8" as="geometry"/>
                </mxCell>
                <mxCell id="Xc-XRdm0GFgDPYHEz2J1-39" value="getters and setters" style="text;strokeColor=none;fillColor=none;align=left;verticalAlign=top;spacingLeft=4;spacingRight=4;overflow=hidden;rotatable=0;points=[[0,0.5],[1,0.5]];portConstraint=eastwest;" parent="Xc-XRdm0GFgDPYHEz2J1-11" vertex="1">
                    <mxGeometry y="112" width="160" height="26" as="geometry"/>
                </mxCell>
                <mxCell id="Xc-XRdm0GFgDPYHEz2J1-25" value="" style="endArrow=diamondThin;endFill=1;endSize=24;html=1;entryX=1;entryY=0.053;entryDx=0;entryDy=0;entryPerimeter=0;exitX=0.01;exitY=0.092;exitDx=0;exitDy=0;exitPerimeter=0;" parent="1" source="Xc-XRdm0GFgDPYHEz2J1-11" target="Xc-XRdm0GFgDPYHEz2J1-5" edge="1">
                    <mxGeometry width="160" relative="1" as="geometry">
                        <mxPoint x="640" y="380" as="sourcePoint"/>
                        <mxPoint x="800" y="380" as="targetPoint"/>
                    </mxGeometry>
                </mxCell>
                <mxCell id="Xc-XRdm0GFgDPYHEz2J1-26" value="" style="endArrow=diamondThin;endFill=1;endSize=24;html=1;exitX=-0.005;exitY=0.065;exitDx=0;exitDy=0;exitPerimeter=0;entryX=1.003;entryY=0.046;entryDx=0;entryDy=0;entryPerimeter=0;" parent="1" source="Xc-XRdm0GFgDPYHEz2J1-5" target="Xc-XRdm0GFgDPYHEz2J1-2" edge="1">
                    <mxGeometry width="160" relative="1" as="geometry">
                        <mxPoint x="510" y="201.856" as="sourcePoint"/>
                        <mxPoint x="493" y="200" as="targetPoint"/>
                    </mxGeometry>
                </mxCell>
                <mxCell id="HiazUnA2qmG2ZjXQlf6u-1" value="&lt;font style=&quot;font-size: 22px&quot;&gt;Server Class Diagram&lt;/font&gt;" style="text;html=1;align=center;verticalAlign=middle;resizable=0;points=[];autosize=1;" parent="1" vertex="1">
                    <mxGeometry x="440" y="60" width="220" height="20" as="geometry"/>
                </mxCell>
                <mxCell id="2" value="MongoConnection" style="swimlane;fontStyle=1;align=center;verticalAlign=top;childLayout=stackLayout;horizontal=1;startSize=26;horizontalStack=0;resizeParent=1;resizeParentMax=0;resizeLast=0;collapsible=1;marginBottom=0;" parent="1" vertex="1">
                    <mxGeometry x="320" y="610" width="330" height="216" as="geometry"/>
                </mxCell>
                <mxCell id="8" value="- databaseConection:object" style="text;strokeColor=none;fillColor=none;align=left;verticalAlign=top;spacingLeft=4;spacingRight=4;overflow=hidden;rotatable=0;points=[[0,0.5],[1,0.5]];portConstraint=eastwest;" parent="2" vertex="1">
                    <mxGeometry y="26" width="330" height="26" as="geometry"/>
                </mxCell>
                <mxCell id="4" value="" style="line;strokeWidth=1;fillColor=none;align=left;verticalAlign=middle;spacingTop=-1;spacingLeft=3;spacingRight=3;rotatable=0;labelPosition=right;points=[];portConstraint=eastwest;" parent="2" vertex="1">
                    <mxGeometry y="52" width="330" height="8" as="geometry"/>
                </mxCell>
                <mxCell id="Xc-XRdm0GFgDPYHEz2J1-29" value="+ createTask(data:Task): void" style="text;strokeColor=none;fillColor=none;align=left;verticalAlign=top;spacingLeft=4;spacingRight=4;overflow=hidden;rotatable=0;points=[[0,0.5],[1,0.5]];portConstraint=eastwest;" parent="2" vertex="1">
                    <mxGeometry y="60" width="330" height="26" as="geometry"/>
                </mxCell>
                <mxCell id="Xc-XRdm0GFgDPYHEz2J1-30" value="+ createItemTask(idTask:string,data:any): void" style="text;strokeColor=none;fillColor=none;align=left;verticalAlign=top;spacingLeft=4;spacingRight=4;overflow=hidden;rotatable=0;points=[[0,0.5],[1,0.5]];portConstraint=eastwest;" parent="2" vertex="1">
                    <mxGeometry y="86" width="330" height="26" as="geometry"/>
                </mxCell>
                <mxCell id="Xc-XRdm0GFgDPYHEz2J1-41" value="+ updateTask(id:string,data:Task): void" style="text;strokeColor=none;fillColor=none;align=left;verticalAlign=top;spacingLeft=4;spacingRight=4;overflow=hidden;rotatable=0;points=[[0,0.5],[1,0.5]];portConstraint=eastwest;" parent="2" vertex="1">
                    <mxGeometry y="112" width="330" height="26" as="geometry"/>
                </mxCell>
                <mxCell id="Xc-XRdm0GFgDPYHEz2J1-42" value="+ updateItemTask(idTask,idItem:int,data:any): void" style="text;strokeColor=none;fillColor=none;align=left;verticalAlign=top;spacingLeft=4;spacingRight=4;overflow=hidden;rotatable=0;points=[[0,0.5],[1,0.5]];portConstraint=eastwest;" parent="2" vertex="1">
                    <mxGeometry y="138" width="330" height="26" as="geometry"/>
                </mxCell>
                <mxCell id="Xc-XRdm0GFgDPYHEz2J1-43" value="+ deleteTask(id:string): void" style="text;strokeColor=none;fillColor=none;align=left;verticalAlign=top;spacingLeft=4;spacingRight=4;overflow=hidden;rotatable=0;points=[[0,0.5],[1,0.5]];portConstraint=eastwest;" parent="2" vertex="1">
                    <mxGeometry y="164" width="330" height="26" as="geometry"/>
                </mxCell>
                <mxCell id="Xc-XRdm0GFgDPYHEz2J1-44" value="+ deleteItemTask(idTask:string,idItem:int): void" style="text;strokeColor=none;fillColor=none;align=left;verticalAlign=top;spacingLeft=4;spacingRight=4;overflow=hidden;rotatable=0;points=[[0,0.5],[1,0.5]];portConstraint=eastwest;" parent="2" vertex="1">
                    <mxGeometry y="190" width="330" height="26" as="geometry"/>
                </mxCell>
                <mxCell id="9" value="" style="endArrow=open;endFill=1;endSize=12;html=1;entryX=0.499;entryY=1.162;entryDx=0;entryDy=0;entryPerimeter=0;exitX=0.001;exitY=0.057;exitDx=0;exitDy=0;exitPerimeter=0;" parent="1" source="2" target="Xc-XRdm0GFgDPYHEz2J1-4" edge="1">
                    <mxGeometry width="160" relative="1" as="geometry">
                        <mxPoint x="500" y="530" as="sourcePoint"/>
                        <mxPoint x="660" y="530" as="targetPoint"/>
                        <Array as="points">
                            <mxPoint x="260" y="622"/>
                            <mxPoint x="260" y="480"/>
                            <mxPoint x="340" y="480"/>
                        </Array>
                    </mxGeometry>
                </mxCell>
                <mxCell id="10" value="" style="endArrow=open;endFill=1;endSize=12;html=1;entryX=0.495;entryY=1.173;entryDx=0;entryDy=0;entryPerimeter=0;exitX=1;exitY=0.042;exitDx=0;exitDy=0;exitPerimeter=0;" parent="1" source="2" target="Xc-XRdm0GFgDPYHEz2J1-32" edge="1">
                    <mxGeometry width="160" relative="1" as="geometry">
                        <mxPoint x="500" y="530" as="sourcePoint"/>
                        <mxPoint x="660" y="530" as="targetPoint"/>
                        <Array as="points">
                            <mxPoint x="700" y="619"/>
                            <mxPoint x="700" y="540"/>
                            <mxPoint x="639" y="540"/>
                        </Array>
                    </mxGeometry>
                </mxCell>
                <mxCell id="5ifPcvj1LmJ-fgP16-Uc-11" value="" style="endArrow=open;endFill=1;endSize=12;html=1;entryX=0.463;entryY=1;entryDx=0;entryDy=0;entryPerimeter=0;exitX=1.003;exitY=0.056;exitDx=0;exitDy=0;exitPerimeter=0;" parent="1" source="2" target="Xc-XRdm0GFgDPYHEz2J1-39" edge="1">
                    <mxGeometry width="160" relative="1" as="geometry">
                        <mxPoint x="650" y="330" as="sourcePoint"/>
                        <mxPoint x="810" y="330" as="targetPoint"/>
                        <Array as="points">
                            <mxPoint x="874" y="620"/>
                        </Array>
                    </mxGeometry>
                </mxCell>
            </root>
        </mxGraphModel>
    </diagram>
</mxfile>